# xmcd
#
# Track frame offsets:
#	150
#	16379
#	32674
#	49765
#	66921
#	80892
#	94020
#	102907
#	119335
#	130837
#	145931
#
# Disc length: 2150 seconds
#
# Revision: 0
# Processed by: cddbd v1.4PL0 Copyright (c) Steve Scherf et al.
# Submitted via: dBpowerAMP V4.0
#
DISCID=9608640b
DTITLE=John Evans Band - Out Of Control
DYEAR=1900
DGENRE=Texas
TTITLE0=Whoa Hoo Yeah
TTITLE1=So Long
TTITLE2=Wrong Way Joe
TTITLE3=Love Don't Know My Name
TTITLE4=Silver Eagle
TTITLE5=Hank And A Harley
TTITLE6=Safe Place To Hide
TTITLE7=Cross That Line
TTITLE8=She Talks To Strangers
TTITLE9=Lonesome Roses
TTITLE10=Out Of Control
EXTD=
EXTT0=
EXTT1=
EXTT2=
EXTT3=
EXTT4=
EXTT5=
EXTT6=
EXTT7=
EXTT8=
EXTT9=
EXTT10=
PLAYORDER=
